<svg xmlns="http://www.w3.org/2000/svg" xmlns:xlink="http://www.w3.org/1999/xlink" xmlns:lucid="lucid" width="1052" height="680"><g transform="translate(-300 -60)" lucid:page-tab-id="0_0"><path d="M0 0h1870.87v1322.83H0z" fill="#fff"/><path d="M756.96 407.4C730.68 427.68 693 423 672.6 396.72c-20.28-26.28-15.6-63.96 10.68-84.36l.6-.36c26.64-19.92 64.32-14.4 84.12 12.12 19.56 26.28 14.64 63.12-11.04 83.28" stroke="#000" stroke-opacity="0" fill="url(#a)"/><path d="M703.78 347.4c17.72-16.88 38.55-25.27 63.02-25.34-3.27-4-6.4-7.07-10.53-10.2-12.05.75-22.14 3.1-33.18 7.8-11.48 4.9-20.26 11-28.9 19.95 4.14 1.57 7.2 4.06 9.58 7.8zM674.05 371.52c-2.57 6.34-4.33 11.9-5.9 18.52 1.4 2.4 2.7 4.33 4.4 6.53 1.3 1.63 2.5 3.1 3.9 4.6 1.8-8.87 4.1-16.22 7.67-24.55-3.96-.7-7.17-2.3-10.07-5.1z" stroke="#000" stroke-opacity="0" fill="#fff" fill-opacity=".6"/><path d="M680.9 339.43c-2.63-7.08-4.1-13.34-4.86-20.83-3.12 3.28-5.44 6.37-7.75 10.28.82 6.02 2.03 11.06 4 16.84 2.32-3 5.03-5.02 8.6-6.3z" stroke="#000" stroke-opacity="0" fill="#f2f2f2" fill-opacity=".55"/><path d="M706.8 357.6c0 10.66-8.66 19.32-19.32 19.32s-19.32-8.66-19.32-19.32 8.66-19.32 19.32-19.32 19.32 8.66 19.32 19.32z" stroke="#000" stroke-opacity="0" fill="url(#b)"/><path d="M715.6 392.94c0-3.54 1.27-6.53 3.8-8.98-6.88-3.77-12.26-7.72-17.9-13.16-2.92 3.16-6.3 5.04-10.54 5.87 3.36 3.44 6.43 6.13 10.27 9.05 4.77 3.6 9.1 6.25 14.5 8.84-.08-.57-.14-1.05-.14-1.62zM760.18 394.42c-6.92 0-12.8-.67-19.52-2.26.04.27.04.5 0 .78 0 3.42-1.2 6.34-3.62 8.76 8.4 1.67 15.67 2.18 24.22 1.7 3.3-3 5.84-5.83 8.42-9.47-3.33.36-6.14.5-9.5.5z" stroke="#000" stroke-opacity="0" fill="#f2f2f2" fill-opacity=".55"/><path d="M740.76 392.88c0 6.96-5.64 12.6-12.6 12.6s-12.6-5.64-12.6-12.6 5.64-12.6 12.6-12.6 12.6 5.64 12.6 12.6z" stroke="#000" stroke-opacity="0" fill="url(#c)"/><path d="M743.63 359.4c.65-2.9 2.03-5.2 4.33-7.07-12.28-8.95-21.73-17.72-31.56-29.3-5.7-6.66-9.93-12.88-14.15-20.63-2.78.86-5.07 1.7-7.7 2.96 4.5 8.44 9.03 15.17 15.23 22.52 10.47 12.48 20.66 21.94 33.85 31.52z" stroke="#000" stroke-opacity="0" fill="#f2f2f2" fill-opacity=".7"/><path d="M770.16 361.86c0 7.4-6 13.38-13.38 13.38-7.4 0-13.38-6-13.38-13.38 0-7.4 6-13.38 13.38-13.38 7.4 0 13.38 6 13.38 13.38z" stroke="#000" stroke-opacity="0" fill="url(#d)"/><path d="M779.16 370.76l-2.47-1.2-2.13-1.14h-.42l-1.83-1.5h-.5l-2.18-1.4c-.8 2.72-2.25 4.82-4.52 6.52.84.56 1.77 1.06 2.68 1.55l.56.34 2.47 1.35 6.07 3.18c.9-2.7 1.52-5.05 2.05-7.87z" stroke="#000" stroke-opacity="0" fill="#f2f2f2" fill-opacity=".55"/><path d="M706.8 357.6c0 10.66-8.66 19.32-19.32 19.32s-19.32-8.66-19.32-19.32 8.66-19.32 19.32-19.32 19.32 8.66 19.32 19.32z" stroke="#000" stroke-opacity="0" fill="url(#e)"/><path d="M740.76 392.88c0 6.96-5.64 12.6-12.6 12.6s-12.6-5.64-12.6-12.6 5.64-12.6 12.6-12.6 12.6 5.64 12.6 12.6z" stroke="#000" stroke-opacity="0" fill="url(#f)"/><path d="M620 86a6 6 0 0 1 6-6h700a6 6 0 0 1 6 6v628a6 6 0 0 1-6 6H626a6 6 0 0 1-6-6z" fill-opacity="0"/><path d="M635 80.07h9.95m4.97 0h9.94m4.97 0h9.94m4.97 0h9.95m4.96 0h9.94m4.97 0h9.94m5 0h9.93m4.97 0h9.94m4.97 0h9.95m4.98 0h9.94m4.97 0h9.94m4.97 0l9.95-.02m4.97 0h9.94m4.98 0h9.94m4.97 0h9.94m4.97 0h9.95m4.97 0h9.94m4.97 0h9.95m4.97 0h9.94m4.96 0h9.94m4.98 0h9.94m4.97 0h9.93m4.97 0h9.95m4.97 0h9.94m4.97 0l9.94-.02m4.97 0h9.95m4.96 0h9.94m4.97 0h9.94m4.98 0h9.95m4.97 0h9.94m4.97 0h9.95m4.97 0h9.95m4.97 0h9.94m4.97 0h9.94m4.97 0h9.94m4.98 0h9.94m4.97 0h9.94m4.97-.02h9.95m4.97 0h9.94m4.97 0h9.95m4.97 0h9.94m4.96 0h9.94m4.97 0h9.95m4.97 0h9.93m4.97 0h9.94m4.98 0h9.94m4.97 0h4.97l.94.07.9.22.88.35.8.5.72.6.6.72.5.8.37.88.23.9v5m0 5v9.98m0 5V120m0 5v9.98m0 5v9.97m0 5v9.98m0 5v9.97m0 5v9.98m0 5v9.97m0 5v9.98m0 5v9.97m0 5l.02 9.97m0 5v9.98m0 5v9.97m0 5v9.98m0 5v9.97m0 5v9.98m0 5v9.97m0 5v9.98m0 5v9.97m0 5v9.98m0 5v9.97m0 5l.02 9.98m0 5v9.97m0 5v9.98m0 5v9.97m0 5v9.98m0 5v9.97m0 5v9.98m0 5v9.97m0 5v9.97m0 5v9.97m0 5v9.97m0 5v9.98m.02 5v9.97m0 5v9.97m0 5v9.97m0 5v9.98m0 5v9.97m0 4.98v10m0 4.98v9.98m0 5V704m0 5V714l-.07.94-.22.9-.35.88-.5.8-.6.72-.72.6-.8.5-.88.37-.9.23h-4.98m-4.97 0h-9.95m-4.97 0h-9.94m-4.97 0h-9.94m-4.97 0h-9.95m-4.96 0h-9.94m-4.97 0h-9.94m-5 0h-9.93m-4.97 0h-9.94m-4.97 0h-9.95m-4.98 0h-9.94m-4.97 0h-9.94m-4.97 0l-9.95.02m-4.97 0h-9.94m-4.98 0h-9.94m-4.97 0h-9.94m-4.97 0h-9.95m-4.97 0h-9.94m-4.97 0h-9.95m-4.97 0h-9.94m-4.96 0h-9.94m-4.98 0h-9.94m-4.97 0h-9.93m-4.97 0h-9.95m-4.97 0h-9.94m-4.97 0l-9.94.02m-4.97 0h-9.95m-4.96 0h-9.94m-4.97 0h-9.94m-4.98 0h-9.95m-4.97 0h-9.94m-4.97 0h-9.95m-4.97 0h-9.95m-4.97 0h-9.94m-4.97 0h-9.94m-4.97 0H800m-4.98 0h-9.94m-4.97 0h-9.94m-4.97.02h-9.95m-4.97 0h-9.94m-4.97 0h-9.95m-4.97 0h-9.94m-4.96 0h-9.94m-4.97 0h-9.95m-4.97 0h-9.93m-4.97 0h-9.94m-4.98 0h-9.94m-4.97 0H626l-.94-.07-.9-.22-.88-.35-.8-.5-.72-.6-.6-.72-.5-.8-.37-.88-.23-.9v-5m0-5v-9.98m0-5V680m0-5v-9.98m0-5v-9.97m0-5v-9.98m0-5v-9.97m0-5v-9.98m0-5v-9.97m0-5v-9.98m0-5v-9.97m0-5l-.02-9.97m0-5v-9.98m0-5v-9.97m0-5v-9.98m0-5v-9.97m0-5v-9.98m0-5v-9.97m0-5v-9.98m0-5v-9.97m0-5v-9.98m0-5v-9.97m0-5l-.02-9.98m0-5v-9.97m0-5v-9.98m0-5v-9.97m0-5v-9.98m0-5v-9.97m0-5v-9.98m0-5v-9.97m0-5v-9.97m0-5v-9.97m0-5v-9.97m0-5v-9.98m-.02-5v-9.97m0-5v-9.97m0-5v-9.97m0-5v-9.98m0-5v-9.97m0-4.98v-10m0-4.98v-9.98m0-5V96m0-5V86l.07-.94.22-.9.35-.88.5-.8.6-.72.72-.6.8-.5.88-.37.9-.23h4.98" stroke="#0e76d4" fill="none"/><path d="M630 90h36v36h-36V90z" stroke="#000" stroke-opacity="0" fill-opacity="0"/><path d="M631 120.16c0 .13.06.22.16.3l2.32 1.27 3.9 2.28c.18.07.38.04.47-.12l1.33-2.24c.07-.16.02-.32-.13-.42l-4.6-2.6c-.1-.06-.15-.16-.15-.3v-20.6c0-.14.06-.24.16-.3l4.6-2.6c.14-.1.2-.26.12-.42l-1.33-2.24c-.1-.16-.3-.23-.46-.16l-3.84 2.2-2.4 1.36c-.1.06-.16.16-.16.3v24.3z" stroke="#000" stroke-opacity="0" fill="#949494"/><path d="M634.28 97.53l.12-.1 4.6-2.6.06-.04c.12-.1.15-.28.06-.4l-1.32-2.24-.02-.06c-.1-.15-.27-.2-.42-.1l-3.86 2.2-2.38 1.35s-.1 0-.12.13l1.8 1.02zM639 121.2l-4.6-2.62c-.07-.04-.1-.1-.15-.18l-3.23 2h.1l2.3 1.3 4 2.23s0 .02.03.03c.15.07.33 0 .4-.15l1.32-2.23v-.04c.05-.15-.04-.3-.18-.34z" stroke="#000" stroke-opacity="0" fill="#a3a3a3"/><path d="M665 120.16c0 .13-.07.22-.16.3l-2.33 1.27-3.9 2.28c-.17.07-.36.04-.46-.12l-1.32-2.24c-.08-.16-.03-.32.12-.42l4.6-2.6c.1-.06.15-.16.15-.3v-20.6c0-.14-.07-.24-.16-.3l-4.6-2.6c-.15-.1-.2-.26-.12-.42l1.32-2.24c.08-.16.28-.23.45-.16l3.83 2.18 2.4 1.35c.1.06.16.16.16.28v24.36z" stroke="#000" stroke-opacity="0" fill="#949494"/><path d="M661.72 97.53l-.13-.1-4.6-2.6c-.15-.07-.22-.24-.16-.38 0-.02.02-.03.03-.05l1.32-2.24c.04-.16.2-.24.37-.2l.06.04 3.86 2.18 2.37 1.33.12.14-1.8 1zM657 121.2l4.6-2.62c.08-.04.12-.1.15-.18l3.24 2-2.3 1.3-4 2.23c-.14.1-.33.06-.42-.08l-.03-.04-1.32-2.23c-.08-.13-.04-.3.08-.38z" stroke="#000" stroke-opacity="0" fill="#a3a3a3"/><path d="M658.62 101.84v12.3l-10.66 6.17V108l10.66-6.16z" stroke="#000" stroke-opacity="0" fill="#32bedd"/><path d="M658.62 101.86l-10.64 6.18-10.64-6.18 10.64-6.17 10.64 6.16z" stroke="#000" stroke-opacity="0" fill="#9cebff"/><path d="M647.96 108.03v12.28l-10.62-6.17v-12.3l10.62 6.2z" stroke="#000" stroke-opacity="0" fill="#50e6ff"/><path d="M637.34 114.17l10.62-6.13v12.3l-10.62-6.17z" stroke="#000" stroke-opacity="0" fill="#9cebff"/><path d="M658.62 114.17l-10.66-6.13v12.3l10.66-6.17z" stroke="#000" stroke-opacity="0" fill="#50e6ff"/><use xlink:href="#g" transform="matrix(1,0,0,1,696,100) translate(0 14.4)"/><use xlink:href="#h" transform="matrix(1,0,0,1,696,100) translate(81.9 14.4)"/><path d="M776.96 447.4C750.68 467.68 713 463 692.6 436.72c-20.28-26.28-15.6-63.96 10.68-84.36l.6-.36c26.64-19.92 64.32-14.4 84.12 12.12 19.56 26.28 14.64 63.12-11.04 83.28" stroke="#000" stroke-opacity="0" fill="url(#i)"/><path d="M723.78 387.4c17.72-16.88 38.55-25.27 63.02-25.34-3.27-4-6.4-7.07-10.53-10.2-12.05.75-22.14 3.1-33.18 7.8-11.48 4.9-20.26 11-28.9 19.95 4.14 1.57 7.2 4.06 9.58 7.8zM694.05 411.52c-2.57 6.34-4.33 11.9-5.9 18.52 1.4 2.4 2.7 4.33 4.4 6.53 1.3 1.63 2.5 3.1 3.9 4.6 1.8-8.87 4.1-16.22 7.67-24.55-3.96-.7-7.17-2.3-10.07-5.1z" stroke="#000" stroke-opacity="0" fill="#fff" fill-opacity=".6"/><path d="M700.9 379.43c-2.63-7.08-4.1-13.34-4.86-20.83-3.12 3.28-5.44 6.37-7.75 10.28.82 6.02 2.03 11.06 4 16.84 2.32-3 5.03-5.02 8.6-6.3z" stroke="#000" stroke-opacity="0" fill="#f2f2f2" fill-opacity=".55"/><path d="M726.8 397.6c0 10.66-8.66 19.32-19.32 19.32s-19.32-8.66-19.32-19.32 8.66-19.32 19.32-19.32 19.32 8.66 19.32 19.32z" stroke="#000" stroke-opacity="0" fill="url(#j)"/><path d="M735.6 432.94c0-3.54 1.27-6.53 3.8-8.98-6.88-3.77-12.26-7.72-17.9-13.16-2.92 3.16-6.3 5.04-10.54 5.87 3.36 3.44 6.43 6.13 10.27 9.05 4.77 3.6 9.1 6.25 14.5 8.84-.08-.57-.14-1.05-.14-1.62zM780.18 434.42c-6.92 0-12.8-.67-19.52-2.26.04.27.04.5 0 .78 0 3.42-1.2 6.34-3.62 8.76 8.4 1.67 15.67 2.18 24.22 1.7 3.3-3 5.84-5.83 8.42-9.47-3.33.36-6.14.5-9.5.5z" stroke="#000" stroke-opacity="0" fill="#f2f2f2" fill-opacity=".55"/><path d="M760.76 432.88c0 6.96-5.64 12.6-12.6 12.6s-12.6-5.64-12.6-12.6 5.64-12.6 12.6-12.6 12.6 5.64 12.6 12.6z" stroke="#000" stroke-opacity="0" fill="url(#k)"/><path d="M763.63 399.4c.65-2.9 2.03-5.2 4.33-7.07-12.28-8.95-21.73-17.72-31.56-29.3-5.7-6.66-9.93-12.88-14.15-20.63-2.78.86-5.07 1.7-7.7 2.96 4.5 8.44 9.03 15.17 15.23 22.52 10.47 12.48 20.66 21.94 33.85 31.52z" stroke="#000" stroke-opacity="0" fill="#f2f2f2" fill-opacity=".7"/><path d="M790.16 401.86c0 7.4-6 13.38-13.38 13.38-7.4 0-13.38-6-13.38-13.38 0-7.4 6-13.38 13.38-13.38 7.4 0 13.38 6 13.38 13.38z" stroke="#000" stroke-opacity="0" fill="url(#l)"/><path d="M799.16 410.76l-2.47-1.2-2.13-1.14h-.42l-1.83-1.5h-.5l-2.18-1.4c-.8 2.72-2.25 4.82-4.52 6.52.84.56 1.77 1.06 2.68 1.55l.56.34 2.47 1.35 6.07 3.18c.9-2.7 1.52-5.05 2.05-7.87z" stroke="#000" stroke-opacity="0" fill="#f2f2f2" fill-opacity=".55"/><path d="M726.8 397.6c0 10.66-8.66 19.32-19.32 19.32s-19.32-8.66-19.32-19.32 8.66-19.32 19.32-19.32 19.32 8.66 19.32 19.32z" stroke="#000" stroke-opacity="0" fill="url(#m)"/><path d="M760.76 432.88c0 6.96-5.64 12.6-12.6 12.6s-12.6-5.64-12.6-12.6 5.64-12.6 12.6-12.6 12.6 5.64 12.6 12.6z" stroke="#000" stroke-opacity="0" fill="url(#n)"/><use xlink:href="#o" transform="matrix(1,0,0,1,650,469) translate(37.05 14.4)"/><use xlink:href="#p" transform="matrix(1,0,0,1,650,469) translate(74.05 14.4)"/><path d="M320 337.2h120v67.24c0 2.28-1.8 4.06-3.96 4.06H323.96c-2.16 0-3.96-1.78-3.96-4.06V337.2z" stroke="#000" stroke-opacity="0" fill="url(#q)"/><path d="M324.08 311.5h111.96c2.16 0 3.96 1.8 3.96 4.04v21.66H320v-21.66c0-2.24 1.8-4.04 3.96-4.04h.12z" stroke="#000" stroke-opacity="0" fill="#0078d4"/><path d="M338.22 319.18h83.68c1.32 0 2.02.68 2.02 2.03v6.34c0 1.35-.7 2.02-2.02 2.02h-83.68c-1.32 0-2.02-.67-2.02-2.02v-6.33c0-1.34.7-2.02 2.02-2.02z" stroke="#000" stroke-opacity="0" fill="#f2f2f2"/><use xlink:href="#r" transform="matrix(1,0,0,1,290,417.5) translate(47.625 14.4)"/><use xlink:href="#s" transform="matrix(1,0,0,1,290,417.5) translate(57.075 36)"/><path d="M1070.74 259.23l5.7-6.14V236.7h-28.55v16.37l5.7 6.13c.37.42.8.68 1.37.77h14.14c.64-.02 1.2-.28 1.64-.77z" stroke="#000" stroke-opacity="0" fill="#cecece"/><path d="M1062 140c-1.85 0-3.36.1-5.2.3-22.86 2.6-39.15 23.3-36.55 46.13 1.93 17.4 18.57 25.53 23.27 47.58.34 1.66 1.68 2.72 3.28 2.72h30.4c1.6 0 2.94-1.06 3.28-2.7 4.8-22.06 21.17-30.18 23.27-47.6.17-1.83.25-3.38.25-5.22-.25-23.02-19.07-41.4-42-41.2zm-14.1 96.72" stroke="#000" stroke-opacity="0" fill="url(#t)"/><path d="M1079.37 163.28c-5.45.2-9.72 4.7-9.56 10.18v5.42h-14.84v-5.42-.26c0-5.48-4.5-9.92-10-9.92-5.4.2-9.66 4.7-9.5 10.18-.16 5.42 4.06 10 9.5 10.2h4.55V226c0 1.45 1.13 2.56 2.52 2.56 1.44 0 2.56-1.1 2.56-2.55v-42.35h15.23V226c0-1.36 1.18-2.53 2.57-2.53 1.4 0 2.5 1.17 2.5 2.54v-42.35h4.5c5.45-.2 9.72-4.77 9.5-10.2.17-5.47-4.1-9.97-9.5-10.17zm-29.86 15.6h-4.8c-2.78-.26-4.92-2.6-4.8-5.42-.12-2.8 2.02-5.22 4.8-5.48 2.83.26 4.9 2.68 4.8 5.48zm30.2 0h-4.82v-5.74c-.32-2.6 1.55-5.03 4.22-5.36 2.62-.26 5.03 1.57 5.35 4.25.05.4.05.72 0 1.1.32 2.88-1.7 5.43-4.55 5.75h-.2z" stroke="#000" stroke-opacity="0" fill="url(#u)"/><path d="M1047.64 248l28.8-5.58v-3.18l-28.8 5.64v3.1zM1076.45 250.15v-3.1l-28.8 5.7v.3l2.18 2.4 26.62-5.3z" stroke="#000" stroke-opacity="0" fill="#999"/><use xlink:href="#v" transform="matrix(1,0,0,1,990,269) translate(28.074999999999996 14.4)"/><use xlink:href="#w" transform="matrix(1,0,0,1,990,269) translate(41.025 36)"/><path d="M1002 585.7h120v67.24c0 2.28-1.8 4.06-4.08 4.06h-111.84c-2.28 0-4.08-1.78-4.08-4.06V585.7z" stroke="#000" stroke-opacity="0" fill="url(#x)"/><path d="M1006.08 560h111.84c2.28 0 4.08 1.8 4.08 4.04v21.67h-120V564c0-2.2 1.8-3.98 4.08-3.98z" stroke="#000" stroke-opacity="0" fill="#37c2b1"/><path d="M1018.34 593.47h87.32c1 .04 1.82.88 1.82 1.9v9.95c0 1.04-.82 1.88-1.82 1.92h-87.32c-1-.04-1.82-.88-1.82-1.92v-9.94c0-1.03.82-1.87 1.82-1.9z" stroke="#000" stroke-opacity="0" fill="#fff"/><path d="M1018.43 613.25h87.35c1 .04 1.82.9 1.82 1.92v10.04c0 1.04-.82 1.88-1.82 1.92h-87.35c-1.1-.04-1.9-.88-1.9-1.9v-9.7c-.2-1.03.54-2.03 1.54-2.24.1 0 .18-.03.36-.03z" stroke="#000" stroke-opacity="0" fill="#37c2b1"/><path d="M1018.34 633.33h87.32c1 .04 1.82.9 1.82 1.92v10.04c0 1.02-.82 1.86-1.82 1.9h-87.32c-1-.04-1.82-.88-1.82-1.9v-10.05c0-1.03.82-1.88 1.82-1.92z" stroke="#000" stroke-opacity="0" fill="#258277"/><use xlink:href="#y" transform="matrix(1,0,0,1,972,666) translate(19.025000000000006 14.4)"/><use xlink:href="#z" transform="matrix(1,0,0,1,972,666) translate(86.97500000000001 14.4)"/><path d="M1290.24 560h-60.12L1200 611.93l30.12 51.93H1290l30-51.93-29.76-51.93zm-32.88 27.2h13.92v14.03h-13.92V587.2zm0 17.46h13.92v13.92h-13.92v-13.92zm0 17.34h13.92v14.03h-13.92V622zm-17.4-34.8h13.92v14.03h-13.92V587.2zm0 17.46h13.92v13.92h-13.92v-13.92zm0 17.34h13.92v14.03h-13.92V622zm48.36 21.6h-56.64v-56.7h3.84v52.86h52.8v3.85zm.36-7.57h-13.92V622h13.92v14.03zm0-17.45h-13.92v-13.92h13.92v13.92zm0-17.45h-13.92V587.2h13.92v13.93z" stroke="#000" stroke-opacity="0" fill="#0078d7"/><use xlink:href="#y" transform="matrix(1,0,0,1,1170,672.8604651162791) translate(36.55 14.4)"/><use xlink:href="#A" transform="matrix(1,0,0,1,1170,672.8604651162791) translate(104.5 14.4)"/><path d="M800.44 400H1056a6 6 0 0 1 6 6v137.62" stroke="#3a414a" fill="none"/><path d="M800.46 400.5h-.5l-.02-1h.52z" stroke="#3a414a" stroke-width=".05" fill="#3a414a"/><path d="M1062 558.38l-4.64-14.26h9.28z" stroke="#3a414a" fill="#3a414a"/><path d="M800.44 400H914a6 6 0 0 0 6-6V206a6 6 0 0 1 6-6h82.74" stroke="#3a414a" fill="none"/><path d="M800.46 400.5h-.5l-.02-1h.52z" stroke="#3a414a" stroke-width=".05" fill="#3a414a"/><path d="M1023.5 200l-14.26 4.64v-9.28z" stroke="#3a414a" fill="#3a414a"/><path d="M1122.5 608.5h63.1" stroke="#3a414a" fill="none"/><path d="M1122.5 609h-.5v-1h.5z" stroke="#3a414a" stroke-width=".05" fill="#3a414a"/><path d="M1200.37 608.5l-14.26 4.64v-9.28z" stroke="#3a414a" fill="#3a414a"/><path d="M454.24 372.74a6 6 0 0 1 0-8.48l31.52-31.52a2.5 2.5 0 0 1 4.24 1.76v8a6 6 0 0 0 6 6h68a6 6 0 0 0 6-6v-8a2.5 2.5 0 0 1 4.24-1.76l31.52 31.52a6 6 0 0 1 0 8.48l-31.52 31.52a2.5 2.5 0 0 1-4.24-1.76v-8a6 6 0 0 0-6-6h-68a6 6 0 0 0-6 6v8a2.5 2.5 0 0 1-4.24 1.76z" stroke="#3a414a" fill="#fff"/><path d="M750.4 672.76c.06 2.16-1.6 3.86-3.67 3.86H687.6c-2.07 0-3.74-1.7-3.74-3.74V567.2c-.06-2.16 1.6-3.86 3.67-3.86h59.13c2.06 0 3.73 1.58 3.8 3.62v.23z" stroke="#000" stroke-opacity="0" fill="url(#B)"/><path d="M693.32 603.1c0-3.98 3.2-7.22 7.18-7.22h33.71c3.9.12 7 3.3 7 7.23.05 4-3.16 7.26-7.13 7.3H700.65c-4.03.04-7.28-3.2-7.33-7.22v-.07zM693.32 581.57c0-4.02 3.26-7.3 7.28-7.3h33.61c3.94.13 7.05 3.36 7 7.3 0 4-3.2 7.23-7.18 7.23h-33.37c-3.98.07-7.23-3.1-7.33-7.1v-.13z" stroke="#000" stroke-opacity="0" fill="#003067"/><path d="M706.05 581.55c0 2.68-2.18 4.86-4.86 4.86-2.7 0-4.88-2.17-4.88-4.85 0-2.7 2.18-4.87 4.87-4.87 2.67 0 4.85 2.18 4.85 4.87zM706.05 603.03c0 2.68-2.18 4.86-4.86 4.86-2.7 0-4.88-2.2-4.88-4.87 0-2.7 2.18-4.87 4.87-4.87 2.67 0 4.85 2.18 4.85 4.87z" stroke="#000" stroke-opacity="0" fill="#50e6ff"/><path d="M796.16 655.8c-.27-10.17-7.68-18.5-17.83-19.96-.46-14.34-12.25-25.58-26.6-25.32-11.7-.2-21.68 6.74-25.52 17.72-12.24 1.6-21.2 11.64-21.48 23.94.37 13.88 11.9 24.8 25.7 24.46H775.6c11.32-.2 20.47-9.4 20.56-20.83z" stroke="#000" stroke-opacity="0" fill="url(#C)"/><path d="M680 560h120v120H680V560z" stroke="#000" stroke-opacity="0" fill-opacity="0"/><use xlink:href="#o" transform="matrix(1,0,0,1,650,689) translate(16.57499999999999 14.4)"/><use xlink:href="#D" transform="matrix(1,0,0,1,650,689) translate(53.57499999999999 14.4)"/><use xlink:href="#E" transform="matrix(1,0,0,1,650,689) translate(118.475 14.4)"/><path d="M799.73 390.77h33.5a6 6 0 0 0 6-6V266.03a6 6 0 0 0-6-6H726a6 6 0 0 0-6 6v17.62" stroke="#3a414a" fill="none"/><path d="M799.75 391.27h-.45l-.1-.7-.05-.3h.6z" stroke="#3a414a" stroke-width=".05" fill="#3a414a"/><path d="M720 298.42l-4.64-14.27h9.28z" stroke="#3a414a" fill="#3a414a"/><path d="M812.64 175.96c0 4.28-3.47 7.74-7.74 7.74s-7.74-3.46-7.74-7.74c0-4.27 3.47-7.74 7.74-7.74s7.74 3.47 7.74 7.74z" stroke="#000" stroke-opacity="0" fill="url(#F)"/><path d="M788.04 176.04c0 4.27-3.47 7.74-7.74 7.74s-7.74-3.47-7.74-7.74c0-4.28 3.47-7.74 7.74-7.74s7.74 3.46 7.74 7.74z" stroke="#000" stroke-opacity="0" fill="url(#G)"/><path d="M763.32 176.04c0 4.27-3.47 7.74-7.74 7.74s-7.74-3.47-7.74-7.74c0-4.28 3.47-7.74 7.74-7.74s7.74 3.46 7.74 7.74z" stroke="#000" stroke-opacity="0" fill="url(#H)"/><path d="M761.23 206.96l-4.43 4.43c-.8.77-2.04.82-2.84.04l-32.74-32.74c-1.54-1.56-1.54-4.12 0-5.7l4.43-4.42 35.58 35.56c.8.78.8 2.04 0 2.82z" stroke="#000" stroke-opacity="0" stroke-width=".71" fill="#50e6ff"/><path d="M756.14 140.7l4.44 4.42c.8.77.8 2.02 0 2.84l-34.98 35.1-4.4-4.4c-1.57-1.56-1.6-4.1-.05-5.7l32.15-32.27c.78-.82 2.06-.82 2.84 0z" stroke="#000" stroke-opacity="0" stroke-width=".71" fill="#1490df"/><path d="M834.4 168.5l4.43 4.44c1.55 1.56 1.55 4.12 0 5.7l-32.74 32.72c-.8.8-2.06.74-2.85-.04l-4.43-4.43c-.8-.8-.8-2.05 0-2.83l35.58-35.56z" stroke="#000" stroke-opacity="0" stroke-width=".71" fill="#50e6ff"/><path d="M838.77 178.62l-4.4 4.44-34.95-35.14c-.8-.82-.8-2.06 0-2.84l4.48-4.48c.78-.82 2.06-.82 2.84 0l32.1 32.3c1.57 1.6 1.53 4.13-.03 5.68z" stroke="#000" stroke-opacity="0" stroke-width=".71" fill="#1490df"/><path d="M756.14 140.66l47.72-.08.3 2-4.55 3.8 28.4 29.38-28.97 29.3 4.64 5.24-.48 1.06H756.8l-.5-.85 4.84-4.87-29.75-29.87 29-29.1-5.13-5.65z" stroke="#000" stroke-opacity="0" fill-opacity="0"/><use xlink:href="#I" transform="matrix(1,0,0,1,690,221) translate(26.824999999999996 14.4)"/><use xlink:href="#J" transform="matrix(1,0,0,1,690,221) translate(102.67500000000001 14.4)"/><use xlink:href="#K" transform="matrix(1,0,0,1,690,221) translate(12.649999999999991 36)"/><use xlink:href="#L" transform="matrix(1,0,0,1,690,221) translate(83.5 36)"/><path d="M1215.77 229.3h30.7V260h-30.7zm-31.52 30.7h26.46v-30.7H1180v26.45c0 2.32 1.93 4.25 4.25 4.25zm-4.25-35.5h30.7v-30.98H1180z" stroke="#000" stroke-opacity="0" fill="url(#M)"/><path d="M1257.76 140c23.06-.25 42 18.33 42.24 41.4v1.2c.25 23.07-18.33 42-41.4 42.24H1215.52v-42.6c-.25-23.07 18.33-42 41.4-42.24h.84z" stroke="#000" stroke-opacity="0" fill="url(#N)"/><path d="M1230.04 176.24h9.66v28.92h-9.66v-28.92zM1249.24 185.84h9.66v19.32h-9.66v-19.32zM1268.56 166.52h9.66v38.64h-9.66v-38.64z" stroke="#000" stroke-opacity="0" fill="#fff"/><path d="M1215.5 224.83h30.98v4.46h-30.7V260h-5.07v-30.7H1180v-4.8h30.7v-30.98h4.8" stroke="#000" stroke-opacity="0" fill-opacity="0"/><use xlink:href="#O" transform="matrix(1,0,0,1,1150,269) translate(36.55 14.4)"/><use xlink:href="#P" transform="matrix(1,0,0,1,1150,269) translate(71.55 14.4)"/><use xlink:href="#Q" transform="matrix(1,0,0,1,1150,269) translate(40.725 36)"/><path d="M1098.82 200h64.8" stroke="#3a414a" fill="none"/><path d="M1098.83 200.5h-.83l.64-1h.2z" stroke="#3a414a" stroke-width=".05" fill="#3a414a"/><path d="M1178.38 200l-14.26 4.64v-9.28z" stroke="#3a414a" fill="#3a414a"/><path d="M620 486a6 6 0 0 1 6-6h248a6 6 0 0 1 6 6v73a6 6 0 0 1-6 6H626a6 6 0 0 1-6-6z" stroke="#000" stroke-opacity="0" fill="#fff" fill-opacity="0"/><use xlink:href="#R" transform="matrix(1,0,0,1,625,485) translate(79.05 19.0875)"/><use xlink:href="#S" transform="matrix(1,0,0,1,625,485) translate(19.599999999999994 40.6875)"/><use xlink:href="#T" transform="matrix(1,0,0,1,625,485) translate(110.5 40.6875)"/><use xlink:href="#U" transform="matrix(1,0,0,1,625,485) translate(127.5 40.6875)"/><use xlink:href="#V" transform="matrix(1,0,0,1,625,485) translate(193.45000000000002 40.6875)"/><use xlink:href="#W" transform="matrix(1,0,0,1,625,485) translate(9.599999999999994 62.2875)"/><use xlink:href="#X" transform="matrix(1,0,0,1,625,485) translate(94.8 62.2875)"/><use xlink:href="#Y" transform="matrix(1,0,0,1,625,485) translate(138.70000000000002 62.2875)"/><use xlink:href="#Z" transform="matrix(1,0,0,1,625,485) translate(205.45000000000002 62.2875)"/><path d="M1008.72 406.92l52.8 34.47 53.76-34.53 6.72 7.87-60.48 39.23-59.52-39.2 6.72-7.85z" stroke="#000" stroke-opacity="0" fill="#50e6ff"/><path d="M1012.72 402.57l48.82-58.57 49.82 58.57-49.82 31.68-48.82-31.68z" stroke="#000" stroke-opacity="0" fill="#fff"/><path d="M1061.56 344v90.25l-48.84-31.68 48.84-58.57z" stroke="#000" stroke-opacity="0" fill="#50e6ff"/><path d="M1061.52 344v90.25l49.8-31.68-49.8-58.57z" stroke="#000" stroke-opacity="0" fill="url(#aa)"/><path d="M1061.52 390.63l49.8 12-49.8 31.62v-43.62z" stroke="#000" stroke-opacity="0" fill="#53b1e0"/><path d="M1061.56 434.25l-48.84-31.7 48.84-11.92v43.62z" stroke="#000" stroke-opacity="0" fill="#9cebff"/><path d="M1061.52 453.97l60.48-39.23-6.77-7.87-53.7 34.52v12.57z" stroke="#000" stroke-opacity="0" fill="url(#ab)"/><path d="M1111.6 418.24c.05-.07.05-.07.1-.07 3.03-3.1 3.03-8.14-.1-11.25l-13.53-13.6c-3.1-3.1-8.06-3.1-11.1 0l-13.58 13.6c-3.05 3.18-3.05 8.15 0 11.32l11.3 11.4c.43.4.64.96.64 1.5v21.2c-.04.76.26 1.38.82 1.93l5.14 5.18c.04.07.08.07.13.14.68.6 1.75.54 2.35-.15l4.97-4.97 3-3.04c.4-.4.4-1.03 0-1.45l-2.14-2.08c-.42-.4-.46-1.1-.08-1.6.05 0 .1-.05.1-.05l2.13-2.14c.4-.42.4-1.04 0-1.45l-2.14-2.14c-.42-.35-.46-1.04-.08-1.45 0-.08.05-.08.1-.15l2.13-2.14c.4-.4.4-1.03 0-1.44l-3-3.04v-1.1zm-19.1-21.67c2.48 0 4.5 2 4.5 4.5 0 2.47-2.02 4.54-4.5 4.54-2.44 0-4.46-2.06-4.46-4.54 0-2.5 2.02-4.5 4.46-4.5z" stroke="#000" stroke-opacity="0" fill="#ffca00"/><path d="M1089.1 453.2c.2.23.46.32.76.3.53-.05.9-.5.86-1.04v-17.5c.02-.35-.13-.67-.4-.88-.2-.14-.42-.2-.66-.18-.52.06-.9.55-.84 1.06v17.15c-.14.42-.03.84.27 1.1zM1082.9 411.5h19.87c.83 0 1.23.42 1.23 1.24v.2c0 .82-.4 1.23-1.23 1.23h-19.86c-.82 0-1.22-.4-1.22-1.23v-.2c0-.82.4-1.23 1.23-1.23zM1082.9 415.8h19.87c.83 0 1.23.4 1.23 1.23v.2c0 .82-.4 1.23-1.23 1.23h-19.86c-.82 0-1.22-.4-1.22-1.23v-.2c0-.82.4-1.23 1.23-1.23z" stroke="#000" stroke-opacity="0" fill="#ff9300" fill-opacity=".75"/><path d="M1115.22 406.9l-2.45 1.55-3.94-4.2 2.56-1.6zm-102.5-4.32l-3.94 4.35 52.8 34.5 21.18-13.67-4.16-4.27-17.03 10.83z" stroke="#000" stroke-opacity="0" fill-opacity="0"/><g><use xlink:href="#ac" transform="matrix(1,0,0,1,972,469) translate(14.074999999999989 14.4)"/><use xlink:href="#ad" transform="matrix(1,0,0,1,972,469) translate(94.02499999999999 14.4)"/></g><defs><radialGradient gradientUnits="userSpaceOnUse" id="a" fx="720.06" fy="359.87" cx="720.06" cy="359.87" r="60.1"><stop offset="18%" stop-color="#5ea0ef" stop-opacity=".7"/><stop offset="100%" stop-color="#0078d4" stop-opacity=".7"/></radialGradient><linearGradient gradientUnits="userSpaceOnUse" id="b" x1="720.44" y1="421.54" x2="719.78" y2="334.73"><stop offset="0%" stop-color="#ccc" stop-opacity=".7"/><stop offset="100%" stop-color="#fcfcfc" stop-opacity=".7"/></linearGradient><linearGradient gradientUnits="userSpaceOnUse" id="c" x1="720" y1="420" x2="720" y2="300.34"><stop offset="0%" stop-color="#ccc" stop-opacity=".7"/><stop offset="100%" stop-color="#fcfcfc" stop-opacity=".7"/></linearGradient><linearGradient gradientUnits="userSpaceOnUse" id="d" x1="720" y1="419.68" x2="720" y2="300"><stop offset="0%" stop-color="#ccc" stop-opacity=".7"/><stop offset="100%" stop-color="#fcfcfc" stop-opacity=".7"/></linearGradient><linearGradient gradientUnits="userSpaceOnUse" id="e" x1="720.44" y1="421.54" x2="719.78" y2="334.73"><stop offset="0%" stop-color="#ccc" stop-opacity=".7"/><stop offset="100%" stop-color="#fcfcfc" stop-opacity=".7"/></linearGradient><linearGradient gradientUnits="userSpaceOnUse" id="f" x1="720" y1="420" x2="720" y2="300.34"><stop offset="0%" stop-color="#ccc" stop-opacity=".7"/><stop offset="100%" stop-color="#fcfcfc" stop-opacity=".7"/></linearGradient><path d="M233-177c-1 41-23 64-60 70L243 0h-38l-65-103H63V0H30v-248c88 3 205-21 203 71zM63-129c60-2 137 13 137-47 0-61-80-42-137-45v92" id="ae"/><path d="M100-194c63 0 86 42 84 106H49c0 40 14 67 53 68 26 1 43-12 49-29l28 8c-11 28-37 45-77 45C44 4 14-33 15-96c1-61 26-98 85-98zm52 81c6-60-76-77-97-28-3 7-6 17-6 28h103" id="af"/><path d="M135-143c-3-34-86-38-87 0 15 53 115 12 119 90S17 21 10-45l28-5c4 36 97 45 98 0-10-56-113-15-118-90-4-57 82-63 122-42 12 7 21 19 24 35" id="ag"/><path d="M100-194c62-1 85 37 85 99 1 63-27 99-86 99S16-35 15-95c0-66 28-99 85-99zM99-20c44 1 53-31 53-75 0-43-8-75-51-75s-53 32-53 75 10 74 51 75" id="ah"/><path d="M84 4C-5 8 30-112 23-190h32v120c0 31 7 50 39 49 72-2 45-101 50-169h31l1 190h-30c-1-10 1-25-2-33-11 22-28 36-60 37" id="ai"/><path d="M114-163C36-179 61-72 57 0H25l-1-190h30c1 12-1 29 2 39 6-27 23-49 58-41v29" id="aj"/><path d="M96-169c-40 0-48 33-48 73s9 75 48 75c24 0 41-14 43-38l32 2c-6 37-31 61-74 61-59 0-76-41-82-99-10-93 101-131 147-64 4 7 5 14 7 22l-32 3c-4-21-16-35-41-35" id="ak"/><g id="g"><use transform="matrix(0.05,0,0,0.05,0,0)" xlink:href="#ae"/><use transform="matrix(0.05,0,0,0.05,12.950000000000001,0)" xlink:href="#af"/><use transform="matrix(0.05,0,0,0.05,22.950000000000003,0)" xlink:href="#ag"/><use transform="matrix(0.05,0,0,0.05,31.950000000000003,0)" xlink:href="#ah"/><use transform="matrix(0.05,0,0,0.05,41.95,0)" xlink:href="#ai"/><use transform="matrix(0.05,0,0,0.05,51.95,0)" xlink:href="#aj"/><use transform="matrix(0.05,0,0,0.05,57.900000000000006,0)" xlink:href="#ak"/><use transform="matrix(0.05,0,0,0.05,66.9,0)" xlink:href="#af"/></g><path d="M143 4C61 4 22-44 18-125c-5-107 100-154 193-111 17 8 29 25 37 43l-32 9c-13-25-37-40-76-40-61 0-88 39-88 99 0 61 29 100 91 101 35 0 62-11 79-27v-45h-74v-28h105v86C228-13 192 4 143 4" id="al"/><path d="M115-194c55 1 70 41 70 98S169 2 115 4C84 4 66-9 55-30l1 105H24l-1-265h31l2 30c10-21 28-34 59-34zm-8 174c40 0 45-34 45-75s-6-73-45-74c-42 0-51 32-51 76 0 43 10 73 51 73" id="am"/><g id="h"><use transform="matrix(0.05,0,0,0.05,0,0)" xlink:href="#al"/><use transform="matrix(0.05,0,0,0.05,14,0)" xlink:href="#aj"/><use transform="matrix(0.05,0,0,0.05,19.95,0)" xlink:href="#ah"/><use transform="matrix(0.05,0,0,0.05,29.950000000000003,0)" xlink:href="#ai"/><use transform="matrix(0.05,0,0,0.05,39.95,0)" xlink:href="#am"/></g><radialGradient gradientUnits="userSpaceOnUse" id="i" fx="740.06" fy="399.87" cx="740.06" cy="399.87" r="60.1"><stop offset="18%" stop-color="#5ea0ef" stop-opacity=".7"/><stop offset="100%" stop-color="#0078d4" stop-opacity=".7"/></radialGradient><linearGradient gradientUnits="userSpaceOnUse" id="j" x1="740.44" y1="461.54" x2="739.78" y2="374.73"><stop offset="0%" stop-color="#ccc" stop-opacity=".7"/><stop offset="100%" stop-color="#fcfcfc" stop-opacity=".7"/></linearGradient><linearGradient gradientUnits="userSpaceOnUse" id="k" x1="740" y1="460" x2="740" y2="340.34"><stop offset="0%" stop-color="#ccc" stop-opacity=".7"/><stop offset="100%" stop-color="#fcfcfc" stop-opacity=".7"/></linearGradient><linearGradient gradientUnits="userSpaceOnUse" id="l" x1="740" y1="459.68" x2="740" y2="340"><stop offset="0%" stop-color="#ccc" stop-opacity=".7"/><stop offset="100%" stop-color="#fcfcfc" stop-opacity=".7"/></linearGradient><linearGradient gradientUnits="userSpaceOnUse" id="m" x1="740.44" y1="461.54" x2="739.78" y2="374.73"><stop offset="0%" stop-color="#ccc" stop-opacity=".7"/><stop offset="100%" stop-color="#fcfcfc" stop-opacity=".7"/></linearGradient><linearGradient gradientUnits="userSpaceOnUse" id="n" x1="740" y1="460" x2="740" y2="340.34"><stop offset="0%" stop-color="#ccc" stop-opacity=".7"/><stop offset="100%" stop-color="#fcfcfc" stop-opacity=".7"/></linearGradient><path d="M205 0l-28-72H64L36 0H1l101-248h38L239 0h-34zm-38-99l-47-123c-12 45-31 82-46 123h93" id="an"/><g id="o"><use transform="matrix(0.05,0,0,0.05,0,0)" xlink:href="#an"/><use transform="matrix(0.05,0,0,0.05,12,0)" xlink:href="#am"/><use transform="matrix(0.05,0,0,0.05,22,0)" xlink:href="#am"/></g><path d="M185-189c-5-48-123-54-124 2 14 75 158 14 163 119 3 78-121 87-175 55-17-10-28-26-33-46l33-7c5 56 141 63 141-1 0-78-155-14-162-118-5-82 145-84 179-34 5 7 8 16 11 25" id="ao"/><path d="M108 0H70L1-190h34L89-25l56-165h34" id="ap"/><path d="M24-231v-30h32v30H24zM24 0v-190h32V0H24" id="aq"/><g id="p"><use transform="matrix(0.05,0,0,0.05,0,0)" xlink:href="#ao"/><use transform="matrix(0.05,0,0,0.05,12,0)" xlink:href="#af"/><use transform="matrix(0.05,0,0,0.05,22,0)" xlink:href="#aj"/><use transform="matrix(0.05,0,0,0.05,27.950000000000003,0)" xlink:href="#ap"/><use transform="matrix(0.05,0,0,0.05,36.95,0)" xlink:href="#aq"/><use transform="matrix(0.05,0,0,0.05,40.900000000000006,0)" xlink:href="#ak"/><use transform="matrix(0.05,0,0,0.05,49.900000000000006,0)" xlink:href="#af"/><use transform="matrix(0.05,0,0,0.05,59.900000000000006,0)" xlink:href="#ag"/></g><linearGradient gradientUnits="userSpaceOnUse" id="q" x1="380" y1="408.5" x2="380" y2="311.5"><stop offset="0%" stop-color="#32bedd"/><stop offset="17.5%" stop-color="#32caea"/><stop offset="41%" stop-color="#32d2f2"/><stop offset="77.5%" stop-color="#32d4f5"/></linearGradient><path d="M212-179c-10-28-35-45-73-45-59 0-87 40-87 99 0 60 29 101 89 101 43 0 62-24 78-52l27 14C228-24 195 4 139 4 59 4 22-46 18-125c-6-104 99-153 187-111 19 9 31 26 39 46" id="ar"/><path d="M24 0v-261h32V0H24" id="as"/><path d="M117-194c89-4 53 116 60 194h-32v-121c0-31-8-49-39-48C34-167 62-67 57 0H25l-1-190h30c1 10-1 24 2 32 11-22 29-35 61-36" id="at"/><path d="M59-47c-2 24 18 29 38 22v24C64 9 27 4 27-40v-127H5v-23h24l9-43h21v43h35v23H59v120" id="au"/><path d="M16-82v-28h88v28H16" id="av"/><path d="M85-194c31 0 48 13 60 33l-1-100h32l1 261h-30c-2-10 0-23-3-31C134-8 116 4 85 4 32 4 16-35 15-94c0-66 23-100 70-100zm9 24c-40 0-46 34-46 75 0 40 6 74 45 74 42 0 51-32 51-76 0-42-9-74-50-73" id="aw"/><g id="r"><use transform="matrix(0.05,0,0,0.05,0,0)" xlink:href="#ar"/><use transform="matrix(0.05,0,0,0.05,12.950000000000001,0)" xlink:href="#as"/><use transform="matrix(0.05,0,0,0.05,16.900000000000002,0)" xlink:href="#aq"/><use transform="matrix(0.05,0,0,0.05,20.85,0)" xlink:href="#af"/><use transform="matrix(0.05,0,0,0.05,30.85,0)" xlink:href="#at"/><use transform="matrix(0.05,0,0,0.05,40.85,0)" xlink:href="#au"/><use transform="matrix(0.05,0,0,0.05,45.85,0)" xlink:href="#av"/><use transform="matrix(0.05,0,0,0.05,51.800000000000004,0)" xlink:href="#ag"/><use transform="matrix(0.05,0,0,0.05,60.800000000000004,0)" xlink:href="#aq"/><use transform="matrix(0.05,0,0,0.05,64.75,0)" xlink:href="#aw"/><use transform="matrix(0.05,0,0,0.05,74.75,0)" xlink:href="#af"/></g><path d="M160-131c35 5 61 23 61 61C221 17 115-2 30 0v-248c76 3 177-17 177 60 0 33-19 50-47 57zm-97-11c50-1 110 9 110-42 0-47-63-36-110-37v79zm0 115c55-2 124 14 124-45 0-56-70-42-124-44v89" id="ax"/><path d="M206 0h-36l-40-164L89 0H53L-1-190h32L70-26l43-164h34l41 164 42-164h31" id="ay"/><g id="s"><use transform="matrix(0.05,0,0,0.05,0,0)" xlink:href="#ax"/><use transform="matrix(0.05,0,0,0.05,12,0)" xlink:href="#aj"/><use transform="matrix(0.05,0,0,0.05,17.95,0)" xlink:href="#ah"/><use transform="matrix(0.05,0,0,0.05,27.950000000000003,0)" xlink:href="#ay"/><use transform="matrix(0.05,0,0,0.05,40.9,0)" xlink:href="#ag"/><use transform="matrix(0.05,0,0,0.05,49.9,0)" xlink:href="#af"/><use transform="matrix(0.05,0,0,0.05,59.900000000000006,0)" xlink:href="#aj"/></g><radialGradient gradientUnits="userSpaceOnUse" id="t" fx="1062" fy="200" cx="1062" cy="200" r="56.23"><stop offset="0%" stop-color="#b77af4"/><stop offset="21%" stop-color="#b378f2"/><stop offset="43%" stop-color="#a672ed"/><stop offset="65%" stop-color="#9267e4"/><stop offset="88%" stop-color="#7559d8"/><stop offset="100%" stop-color="#624fd0"/></radialGradient><linearGradient gradientUnits="userSpaceOnUse" id="u" x1="1061.94" y1="141.56" x2="1062.61" y2="239.89"><stop offset="0%" stop-color="#f2f2f2"/><stop offset="23%" stop-color="#f1f1f2"/><stop offset="37%" stop-color="#ededf1"/><stop offset="48%" stop-color="#e7e5f0"/><stop offset="58%" stop-color="#dedbee"/><stop offset="67%" stop-color="#d3ceeb"/><stop offset="76%" stop-color="#c4bee8"/><stop offset="84%" stop-color="#b4abe5"/><stop offset="92%" stop-color="#a095e1"/><stop offset="99%" stop-color="#8b7ddc"/><stop offset="100%" stop-color="#897bdc"/></linearGradient><path d="M141-36C126-15 110 5 73 4 37 3 15-17 15-53c-1-64 63-63 125-63 3-35-9-54-41-54-24 1-41 7-42 31l-33-3c5-37 33-52 76-52 45 0 72 20 72 64v82c-1 20 7 32 28 27v20c-31 9-61-2-59-35zM48-53c0 20 12 33 32 33 41-3 63-29 60-74-43 2-92-5-92 41" id="az"/><g id="v"><use transform="matrix(0.05,0,0,0.05,0,0)" xlink:href="#an"/><use transform="matrix(0.05,0,0,0.05,12,0)" xlink:href="#am"/><use transform="matrix(0.05,0,0,0.05,22,0)" xlink:href="#am"/><use transform="matrix(0.05,0,0,0.05,32,0)" xlink:href="#as"/><use transform="matrix(0.05,0,0,0.05,35.95,0)" xlink:href="#aq"/><use transform="matrix(0.05,0,0,0.05,39.900000000000006,0)" xlink:href="#ak"/><use transform="matrix(0.05,0,0,0.05,48.900000000000006,0)" xlink:href="#az"/><use transform="matrix(0.05,0,0,0.05,58.900000000000006,0)" xlink:href="#au"/><use transform="matrix(0.05,0,0,0.05,63.900000000000006,0)" xlink:href="#aq"/><use transform="matrix(0.05,0,0,0.05,67.85000000000001,0)" xlink:href="#ah"/><use transform="matrix(0.05,0,0,0.05,77.85000000000001,0)" xlink:href="#at"/></g><path d="M33 0v-248h34V0H33" id="aA"/><path d="M177-190C167-65 218 103 67 71c-23-6-38-20-44-43l32-5c15 47 100 32 89-28v-30C133-14 115 1 83 1 29 1 15-40 15-95c0-56 16-97 71-98 29-1 48 16 59 35 1-10 0-23 2-32h30zM94-22c36 0 50-32 50-73 0-42-14-75-50-75-39 0-46 34-46 75s6 73 46 73" id="aB"/><path d="M106-169C34-169 62-67 57 0H25v-261h32l-1 103c12-21 28-36 61-36 89 0 53 116 60 194h-32v-121c2-32-8-49-39-48" id="aC"/><g id="w"><use transform="matrix(0.05,0,0,0.05,0,0)" xlink:href="#aA"/><use transform="matrix(0.05,0,0,0.05,5,0)" xlink:href="#at"/><use transform="matrix(0.05,0,0,0.05,15,0)" xlink:href="#ag"/><use transform="matrix(0.05,0,0,0.05,24,0)" xlink:href="#aq"/><use transform="matrix(0.05,0,0,0.05,27.950000000000003,0)" xlink:href="#aB"/><use transform="matrix(0.05,0,0,0.05,37.95,0)" xlink:href="#aC"/><use transform="matrix(0.05,0,0,0.05,47.95,0)" xlink:href="#au"/><use transform="matrix(0.05,0,0,0.05,52.95,0)" xlink:href="#ag"/></g><linearGradient gradientUnits="userSpaceOnUse" id="x" x1="1062" y1="656.9" x2="1062" y2="560"><stop offset="0%" stop-color="#b3b3b3"/><stop offset="26%" stop-color="#c1c1c1"/><stop offset="100%" stop-color="#e6e6e6"/></linearGradient><g id="y"><use transform="matrix(0.05,0,0,0.05,0,0)" xlink:href="#ao"/><use transform="matrix(0.05,0,0,0.05,12,0)" xlink:href="#au"/><use transform="matrix(0.05,0,0,0.05,17,0)" xlink:href="#ah"/><use transform="matrix(0.05,0,0,0.05,27,0)" xlink:href="#aj"/><use transform="matrix(0.05,0,0,0.05,32.95,0)" xlink:href="#az"/><use transform="matrix(0.05,0,0,0.05,42.95,0)" xlink:href="#aB"/><use transform="matrix(0.05,0,0,0.05,52.95,0)" xlink:href="#af"/></g><g id="z"><use transform="matrix(0.05,0,0,0.05,0,0)" xlink:href="#an"/><use transform="matrix(0.05,0,0,0.05,12,0)" xlink:href="#ak"/><use transform="matrix(0.05,0,0,0.05,21,0)" xlink:href="#ak"/><use transform="matrix(0.05,0,0,0.05,30,0)" xlink:href="#ah"/><use transform="matrix(0.05,0,0,0.05,40,0)" xlink:href="#ai"/><use transform="matrix(0.05,0,0,0.05,50,0)" xlink:href="#at"/><use transform="matrix(0.05,0,0,0.05,60,0)" xlink:href="#au"/><use transform="matrix(0.05,0,0,0.05,65,0)" xlink:href="#ag"/></g><path d="M115-194c53 0 69 39 70 98 0 66-23 100-70 100C84 3 66-7 56-30L54 0H23l1-261h32v101c10-23 28-34 59-34zm-8 174c40 0 45-34 45-75 0-40-5-75-45-74-42 0-51 32-51 76 0 43 10 73 51 73" id="aD"/><g id="A"><use transform="matrix(0.05,0,0,0.05,0,0)" xlink:href="#au"/><use transform="matrix(0.05,0,0,0.05,5,0)" xlink:href="#az"/><use transform="matrix(0.05,0,0,0.05,15,0)" xlink:href="#aD"/><use transform="matrix(0.05,0,0,0.05,25,0)" xlink:href="#as"/><use transform="matrix(0.05,0,0,0.05,28.950000000000003,0)" xlink:href="#af"/></g><linearGradient gradientUnits="userSpaceOnUse" id="B" x1="739.94" y1="680" x2="739.94" y2="560"><stop offset="5%" stop-color="#949494"/><stop offset="36%" stop-color="#979797"/><stop offset="54%" stop-color="#9f9f9f"/><stop offset="69%" stop-color="#adadad"/><stop offset="73%" stop-color="#b3b3b3"/></linearGradient><linearGradient gradientUnits="userSpaceOnUse" id="C" x1="740" y1="541.14" x2="740" y2="706.72"><stop offset="18%" stop-color="#5ea0ef"/><stop offset="100%" stop-color="#0078d4"/></linearGradient><g id="D"><use transform="matrix(0.05,0,0,0.05,0,0)" xlink:href="#ao"/><use transform="matrix(0.05,0,0,0.05,12,0)" xlink:href="#af"/><use transform="matrix(0.05,0,0,0.05,22,0)" xlink:href="#aj"/><use transform="matrix(0.05,0,0,0.05,27.950000000000003,0)" xlink:href="#ap"/><use transform="matrix(0.05,0,0,0.05,36.95,0)" xlink:href="#aq"/><use transform="matrix(0.05,0,0,0.05,40.900000000000006,0)" xlink:href="#ak"/><use transform="matrix(0.05,0,0,0.05,49.900000000000006,0)" xlink:href="#af"/></g><path d="M30-248c87 1 191-15 191 75 0 78-77 80-158 76V0H30v-248zm33 125c57 0 124 11 124-50 0-59-68-47-124-48v98" id="aE"/><g id="E"><use transform="matrix(0.05,0,0,0.05,0,0)" xlink:href="#aE"/><use transform="matrix(0.05,0,0,0.05,12,0)" xlink:href="#as"/><use transform="matrix(0.05,0,0,0.05,15.949999999999998,0)" xlink:href="#az"/><use transform="matrix(0.05,0,0,0.05,25.950000000000003,0)" xlink:href="#at"/><use transform="matrix(0.05,0,0,0.05,35.95,0)" xlink:href="#ag"/></g><linearGradient gradientUnits="userSpaceOnUse" id="F" x1="737.69" y1="150.74" x2="822.63" y2="201.57"><stop offset="0%" stop-color="#86d633"/><stop offset="100%" stop-color="#5e9624"/></linearGradient><linearGradient gradientUnits="userSpaceOnUse" id="G" x1="632.07" y1="163.28" x2="716.38" y2="214.17"><stop offset="0%" stop-color="#86d633"/><stop offset="100%" stop-color="#5e9624"/></linearGradient><linearGradient gradientUnits="userSpaceOnUse" id="H" x1="632.07" y1="163.28" x2="716.38" y2="214.17"><stop offset="0%" stop-color="#86d633"/><stop offset="100%" stop-color="#5e9624"/></linearGradient><g id="I"><use transform="matrix(0.05,0,0,0.05,0,0)" xlink:href="#ae"/><use transform="matrix(0.05,0,0,0.05,12.950000000000001,0)" xlink:href="#af"/><use transform="matrix(0.05,0,0,0.05,22.950000000000003,0)" xlink:href="#aB"/><use transform="matrix(0.05,0,0,0.05,32.95,0)" xlink:href="#aq"/><use transform="matrix(0.05,0,0,0.05,36.900000000000006,0)" xlink:href="#ah"/><use transform="matrix(0.05,0,0,0.05,46.900000000000006,0)" xlink:href="#at"/><use transform="matrix(0.05,0,0,0.05,56.900000000000006,0)" xlink:href="#az"/><use transform="matrix(0.05,0,0,0.05,66.9,0)" xlink:href="#as"/></g><path d="M137 0h-34L2-248h35l83 218 83-218h36" id="aF"/><g id="J"><use transform="matrix(0.05,0,0,0.05,0,0)" xlink:href="#aF"/><use transform="matrix(0.05,0,0,0.05,11.65,0)" xlink:href="#aq"/><use transform="matrix(0.05,0,0,0.05,15.600000000000001,0)" xlink:href="#aj"/><use transform="matrix(0.05,0,0,0.05,21.55,0)" xlink:href="#au"/><use transform="matrix(0.05,0,0,0.05,26.55,0)" xlink:href="#ai"/><use transform="matrix(0.05,0,0,0.05,36.55,0)" xlink:href="#az"/><use transform="matrix(0.05,0,0,0.05,46.55,0)" xlink:href="#as"/></g><path d="M190 0L58-211 59 0H30v-248h39L202-35l-2-213h31V0h-41" id="aG"/><path d="M143 0L79-87 56-68V0H24v-261h32v163l83-92h37l-77 82L181 0h-38" id="aH"/><g id="K"><use transform="matrix(0.05,0,0,0.05,0,0)" xlink:href="#aG"/><use transform="matrix(0.05,0,0,0.05,12.950000000000001,0)" xlink:href="#af"/><use transform="matrix(0.05,0,0,0.05,22.950000000000003,0)" xlink:href="#au"/><use transform="matrix(0.05,0,0,0.05,27.950000000000003,0)" xlink:href="#ay"/><use transform="matrix(0.05,0,0,0.05,40.900000000000006,0)" xlink:href="#ah"/><use transform="matrix(0.05,0,0,0.05,50.900000000000006,0)" xlink:href="#aj"/><use transform="matrix(0.05,0,0,0.05,56.85,0)" xlink:href="#aH"/></g><g id="L"><use transform="matrix(0.05,0,0,0.05,0,0)" xlink:href="#aq"/><use transform="matrix(0.05,0,0,0.05,3.95,0)" xlink:href="#at"/><use transform="matrix(0.05,0,0,0.05,13.949999999999998,0)" xlink:href="#au"/><use transform="matrix(0.05,0,0,0.05,18.95,0)" xlink:href="#af"/><use transform="matrix(0.05,0,0,0.05,28.950000000000003,0)" xlink:href="#aB"/><use transform="matrix(0.05,0,0,0.05,38.95,0)" xlink:href="#aj"/><use transform="matrix(0.05,0,0,0.05,44.900000000000006,0)" xlink:href="#az"/><use transform="matrix(0.05,0,0,0.05,54.900000000000006,0)" xlink:href="#au"/><use transform="matrix(0.05,0,0,0.05,59.900000000000006,0)" xlink:href="#aq"/><use transform="matrix(0.05,0,0,0.05,63.85,0)" xlink:href="#ah"/><use transform="matrix(0.05,0,0,0.05,73.85000000000001,0)" xlink:href="#at"/></g><linearGradient gradientUnits="userSpaceOnUse" id="M" x1="1240" y1="260" x2="1240" y2="140"><stop offset="0%" stop-color="#1988d9"/><stop offset="90%" stop-color="#54aef0"/></linearGradient><linearGradient gradientUnits="userSpaceOnUse" id="N" x1="1240" y1="259.49" x2="1240" y2="140"><stop offset="0%" stop-color="#198ab3"/><stop offset="1%" stop-color="#198bb4"/><stop offset="44%" stop-color="#27b2d7"/><stop offset="79%" stop-color="#2fcbed"/><stop offset="100%" stop-color="#32d4f5"/></linearGradient><path d="M30 0v-248h33v221h125V0H30" id="aI"/><g id="O"><use transform="matrix(0.05,0,0,0.05,0,0)" xlink:href="#aI"/><use transform="matrix(0.05,0,0,0.05,10,0)" xlink:href="#ah"/><use transform="matrix(0.05,0,0,0.05,20,0)" xlink:href="#aB"/></g><path d="M179-190L93 31C79 59 56 82 12 73V49c39 6 53-20 64-50L1-190h34L92-34l54-156h33" id="aJ"/><g id="P"><use transform="matrix(0.05,0,0,0.05,0,0)" xlink:href="#an"/><use transform="matrix(0.05,0,0,0.05,12,0)" xlink:href="#at"/><use transform="matrix(0.05,0,0,0.05,22,0)" xlink:href="#az"/><use transform="matrix(0.05,0,0,0.05,32,0)" xlink:href="#as"/><use transform="matrix(0.05,0,0,0.05,35.95,0)" xlink:href="#aJ"/><use transform="matrix(0.05,0,0,0.05,44.95,0)" xlink:href="#au"/><use transform="matrix(0.05,0,0,0.05,49.95,0)" xlink:href="#aq"/><use transform="matrix(0.05,0,0,0.05,53.900000000000006,0)" xlink:href="#ak"/><use transform="matrix(0.05,0,0,0.05,62.900000000000006,0)" xlink:href="#ag"/></g><path d="M266 0h-40l-56-210L115 0H75L2-248h35L96-30l15-64 43-154h32l59 218 59-218h35" id="aK"/><g id="Q"><use transform="matrix(0.05,0,0,0.05,0,0)" xlink:href="#aK"/><use transform="matrix(0.05,0,0,0.05,16.599999999999998,0)" xlink:href="#ah"/><use transform="matrix(0.05,0,0,0.05,26.599999999999994,0)" xlink:href="#aj"/><use transform="matrix(0.05,0,0,0.05,32.55,0)" xlink:href="#aH"/><use transform="matrix(0.05,0,0,0.05,41.55,0)" xlink:href="#ag"/><use transform="matrix(0.05,0,0,0.05,50.55,0)" xlink:href="#am"/><use transform="matrix(0.05,0,0,0.05,60.54999999999999,0)" xlink:href="#az"/><use transform="matrix(0.05,0,0,0.05,70.55,0)" xlink:href="#ak"/><use transform="matrix(0.05,0,0,0.05,79.55,0)" xlink:href="#af"/><use transform="matrix(0.05,0,0,0.05,89.55,0)" xlink:href="#ag"/></g><path d="M101-251c82-7 93 87 43 132L82-64C71-53 59-42 53-27h129V0H18c2-99 128-94 128-182 0-28-16-43-45-43s-46 15-49 41l-32-3c6-41 34-60 81-64" id="aL"/><g id="R"><use transform="matrix(0.05,0,0,0.05,0,0)" xlink:href="#aL"/><use transform="matrix(0.05,0,0,0.05,10,0)" xlink:href="#av"/><use transform="matrix(0.05,0,0,0.05,15.949999999999998,0)" xlink:href="#aq"/><use transform="matrix(0.05,0,0,0.05,19.9,0)" xlink:href="#at"/><use transform="matrix(0.05,0,0,0.05,29.899999999999995,0)" xlink:href="#ag"/><use transform="matrix(0.05,0,0,0.05,38.9,0)" xlink:href="#au"/><use transform="matrix(0.05,0,0,0.05,43.9,0)" xlink:href="#az"/><use transform="matrix(0.05,0,0,0.05,53.900000000000006,0)" xlink:href="#at"/><use transform="matrix(0.05,0,0,0.05,63.900000000000006,0)" xlink:href="#ak"/><use transform="matrix(0.05,0,0,0.05,72.9,0)" xlink:href="#af"/><use transform="matrix(0.05,0,0,0.05,82.9,0)" xlink:href="#ag"/></g><g id="S"><use transform="matrix(0.05,0,0,0.05,0,0)" xlink:href="#aE"/><use transform="matrix(0.05,0,0,0.05,12,0)" xlink:href="#aj"/><use transform="matrix(0.05,0,0,0.05,17.95,0)" xlink:href="#ah"/><use transform="matrix(0.05,0,0,0.05,27.950000000000003,0)" xlink:href="#aw"/><use transform="matrix(0.05,0,0,0.05,37.95,0)" xlink:href="#ai"/><use transform="matrix(0.05,0,0,0.05,47.95,0)" xlink:href="#ak"/><use transform="matrix(0.05,0,0,0.05,56.95,0)" xlink:href="#au"/><use transform="matrix(0.05,0,0,0.05,61.95,0)" xlink:href="#aq"/><use transform="matrix(0.05,0,0,0.05,65.9,0)" xlink:href="#ah"/><use transform="matrix(0.05,0,0,0.05,75.9,0)" xlink:href="#at"/></g><path d="M234-2c-28 10-62 0-77-18C117 19 8 12 13-65c3-43 29-61 60-76-25-40-17-114 47-108 35 3 59 15 59 50 0 44-40 53-71 69 14 26 32 50 51 72 14-21 24-43 30-72l26 8c-9 33-21 57-38 82 13 13 33 22 57 15v23zM97-151c25-10 52-18 56-48-1-18-13-29-33-29-42 0-39 50-23 77zM42-66c-3 51 71 58 98 28-20-24-41-51-56-80-23 10-40 24-42 52" id="aM"/><use transform="matrix(0.05,0,0,0.05,0,0)" xlink:href="#aM" id="T"/><g id="U"><use transform="matrix(0.05,0,0,0.05,0,0)" xlink:href="#ao"/><use transform="matrix(0.05,0,0,0.05,12,0)" xlink:href="#au"/><use transform="matrix(0.05,0,0,0.05,17,0)" xlink:href="#az"/><use transform="matrix(0.05,0,0,0.05,27,0)" xlink:href="#aB"/><use transform="matrix(0.05,0,0,0.05,37,0)" xlink:href="#aq"/><use transform="matrix(0.05,0,0,0.05,40.95,0)" xlink:href="#at"/><use transform="matrix(0.05,0,0,0.05,50.95,0)" xlink:href="#aB"/></g><g id="V"><use transform="matrix(0.05,0,0,0.05,0,0)" xlink:href="#ag"/><use transform="matrix(0.05,0,0,0.05,9,0)" xlink:href="#as"/><use transform="matrix(0.05,0,0,0.05,12.949999999999998,0)" xlink:href="#ah"/><use transform="matrix(0.05,0,0,0.05,22.95,0)" xlink:href="#au"/><use transform="matrix(0.05,0,0,0.05,27.950000000000003,0)" xlink:href="#ag"/></g><path d="M87 75C49 33 22-17 22-94c0-76 28-126 65-167h31c-38 41-64 92-64 168S80 34 118 75H87" id="aN"/><path d="M33 0v-38h34V0H33" id="aO"/><path d="M30 0v-248h187v28H63v79h144v27H63v87h162V0H30" id="aP"/><path d="M127-220V0H93v-220H8v-28h204v28h-85" id="aQ"/><g id="W"><use transform="matrix(0.05,0,0,0.05,0,0)" xlink:href="#aN"/><use transform="matrix(0.05,0,0,0.05,5.95,0)" xlink:href="#an"/><use transform="matrix(0.05,0,0,0.05,17.95,0)" xlink:href="#ao"/><use transform="matrix(0.05,0,0,0.05,29.950000000000003,0)" xlink:href="#aE"/><use transform="matrix(0.05,0,0,0.05,39.65,0)" xlink:href="#aO"/><use transform="matrix(0.05,0,0,0.05,44.65,0)" xlink:href="#aG"/><use transform="matrix(0.05,0,0,0.05,57.6,0)" xlink:href="#aP"/><use transform="matrix(0.05,0,0,0.05,69.6,0)" xlink:href="#aQ"/></g><g id="X"><use transform="matrix(0.05,0,0,0.05,0,0)" xlink:href="#ar"/><use transform="matrix(0.05,0,0,0.05,12.950000000000001,0)" xlink:href="#ah"/><use transform="matrix(0.05,0,0,0.05,22.950000000000003,0)" xlink:href="#aj"/><use transform="matrix(0.05,0,0,0.05,28.900000000000002,0)" xlink:href="#af"/></g><path d="M240 0l2-218c-23 76-54 145-80 218h-23L58-218 59 0H30v-248h44l77 211c21-75 51-140 76-211h43V0h-30" id="aR"/><path d="M210-169c-67 3-38 105-44 169h-31v-121c0-29-5-50-35-48C34-165 62-65 56 0H25l-1-190h30c1 10-1 24 2 32 10-44 99-50 107 0 11-21 27-35 58-36 85-2 47 119 55 194h-31v-121c0-29-5-49-35-48" id="aS"/><g id="Y"><use transform="matrix(0.05,0,0,0.05,0,0)" xlink:href="#aR"/><use transform="matrix(0.05,0,0,0.05,14.950000000000001,0)" xlink:href="#aq"/><use transform="matrix(0.05,0,0,0.05,18.900000000000002,0)" xlink:href="#at"/><use transform="matrix(0.05,0,0,0.05,28.900000000000002,0)" xlink:href="#aq"/><use transform="matrix(0.05,0,0,0.05,32.85,0)" xlink:href="#aS"/><use transform="matrix(0.05,0,0,0.05,47.800000000000004,0)" xlink:href="#az"/><use transform="matrix(0.05,0,0,0.05,57.800000000000004,0)" xlink:href="#as"/></g><path d="M33-261c38 41 65 92 65 168S71 34 33 75H2C39 34 66-17 66-93S39-220 2-261h31" id="aT"/><g id="Z"><use transform="matrix(0.05,0,0,0.05,0,0)" xlink:href="#an"/><use transform="matrix(0.05,0,0,0.05,12,0)" xlink:href="#aE"/><use transform="matrix(0.05,0,0,0.05,24,0)" xlink:href="#aA"/><use transform="matrix(0.05,0,0,0.05,29,0)" xlink:href="#aT"/></g><linearGradient gradientUnits="userSpaceOnUse" id="aa" x1="1071.39" y1="449.3" x2="997.1" y2="373.64"><stop offset="0%" stop-color="#1988d9"/><stop offset="90%" stop-color="#54aef0"/></linearGradient><linearGradient gradientUnits="userSpaceOnUse" id="ab" x1="1032.81" y1="348.88" x2="1075.18" y2="440.16"><stop offset="10%" stop-color="#54aef0"/><stop offset="29%" stop-color="#4fabee"/><stop offset="51%" stop-color="#41a2e9"/><stop offset="74%" stop-color="#2a93e0"/><stop offset="88%" stop-color="#1988d9"/></linearGradient><g id="ac"><use transform="matrix(0.05,0,0,0.05,0,0)" xlink:href="#aR"/><use transform="matrix(0.05,0,0,0.05,14.950000000000001,0)" xlink:href="#az"/><use transform="matrix(0.05,0,0,0.05,24.950000000000003,0)" xlink:href="#at"/><use transform="matrix(0.05,0,0,0.05,34.95,0)" xlink:href="#az"/><use transform="matrix(0.05,0,0,0.05,44.95,0)" xlink:href="#aB"/><use transform="matrix(0.05,0,0,0.05,54.95,0)" xlink:href="#af"/><use transform="matrix(0.05,0,0,0.05,64.95,0)" xlink:href="#aw"/></g><g id="ad"><use transform="matrix(0.05,0,0,0.05,0,0)" xlink:href="#aA"/><use transform="matrix(0.05,0,0,0.05,5,0)" xlink:href="#aw"/><use transform="matrix(0.05,0,0,0.05,15,0)" xlink:href="#af"/><use transform="matrix(0.05,0,0,0.05,25,0)" xlink:href="#at"/><use transform="matrix(0.05,0,0,0.05,35,0)" xlink:href="#au"/><use transform="matrix(0.05,0,0,0.05,40,0)" xlink:href="#aq"/><use transform="matrix(0.05,0,0,0.05,43.95,0)" xlink:href="#au"/><use transform="matrix(0.05,0,0,0.05,48.95,0)" xlink:href="#aq"/><use transform="matrix(0.05,0,0,0.05,52.900000000000006,0)" xlink:href="#af"/><use transform="matrix(0.05,0,0,0.05,62.900000000000006,0)" xlink:href="#ag"/></g></defs></g></svg>